HIERARCHY
ROOT reference
{
  OFFSET 0 0 0
  CHANNELS 6 Xposition Yposition Zposition Zrotation Xrotation Yrotation
  JOINT Hips
  {
    OFFSET -4.61953 83.4392 65.4584
    CHANNELS 6 Xposition Yposition Zposition Zrotation Xrotation Yrotation
    JOINT Spine
    {
      OFFSET 0 7.52385 0
      CHANNELS 6 Xposition Yposition Zposition Zrotation Xrotation Yrotation
      JOINT Spine1
      {
        OFFSET 0 21.7843 0
        CHANNELS 6 Xposition Yposition Zposition Zrotation Xrotation Yrotation
        JOINT Neck
        {
          OFFSET 0 21.6948 1.97225
          CHANNELS 6 Xposition Yposition Zposition Zrotation Xrotation Yrotation
          JOINT Head
          {
            OFFSET 0 12.8456 -1.83509
            CHANNELS 6 Xposition Yposition Zposition Zrotation Xrotation Yrotation
            End Site
            {
              OFFSET 0 22.9386 0
            }
          }
        }
        JOINT LeftShoulder
        {
          OFFSET 3.65748 19.7052 -0.211895
          CHANNELS 6 Xposition Yposition Zposition Zrotation Xrotation Yrotation
          JOINT LeftArm
          {
            OFFSET 11.1953 0 0
            CHANNELS 6 Xposition Yposition Zposition Zrotation Xrotation Yrotation
            JOINT LeftForeArm
            {
              OFFSET 29.6607 0 0
              CHANNELS 6 Xposition Yposition Zposition Zrotation Xrotation Yrotation
              JOINT LeftHand
              {
                OFFSET 23.3476 0 0
                CHANNELS 6 Xposition Yposition Zposition Zrotation Xrotation Yrotation
                End Site
                {
                  OFFSET 13.7631 0 0
                }
              }
            }
          }
        }
        JOINT RightShoulder
        {
          OFFSET -3.68053 19.7052 -0.211895
          CHANNELS 6 Xposition Yposition Zposition Zrotation Xrotation Yrotation
          JOINT RightArm
          {
            OFFSET -11.1953 0 0
            CHANNELS 6 Xposition Yposition Zposition Zrotation Xrotation Yrotation
            JOINT RightForeArm
            {
              OFFSET -29.6607 0 0
              CHANNELS 6 Xposition Yposition Zposition Zrotation Xrotation Yrotation
              JOINT RightHand
              {
                OFFSET -23.3476 0 0
                CHANNELS 6 Xposition Yposition Zposition Zrotation Xrotation Yrotation
                End Site
                {
                  OFFSET -13.7631 0 0
                }
              }
            }
          }
        }
      }
    }
    JOINT LeftUpLeg
    {
      OFFSET 9.17543 0 0
      CHANNELS 6 Xposition Yposition Zposition Zrotation Xrotation Yrotation
      JOINT LeftLeg
      {
        OFFSET 0 -39.1216 0
        CHANNELS 6 Xposition Yposition Zposition Zrotation Xrotation Yrotation
        JOINT LeftFoot
        {
          OFFSET 0 -35.3569 0
          CHANNELS 6 Xposition Yposition Zposition Zrotation Xrotation Yrotation
          JOINT LeftToeBase
          {
            OFFSET 0 -5.96403 13.7631
            CHANNELS 6 Xposition Yposition Zposition Zrotation Xrotation Yrotation
            End Site
            {
              OFFSET 0 0 3.67017
            }
          }
        }
      }
    }
    JOINT RightUpLeg
    {
      OFFSET -9.17543 0 0
      CHANNELS 6 Xposition Yposition Zposition Zrotation Xrotation Yrotation
      JOINT RightLeg
      {
        OFFSET 0 -39.1216 0
        CHANNELS 6 Xposition Yposition Zposition Zrotation Xrotation Yrotation
        JOINT RightFoot
        {
          OFFSET 0 -35.3569 0
          CHANNELS 6 Xposition Yposition Zposition Zrotation Xrotation Yrotation
          JOINT RightToeBase
          {
            OFFSET 0 -5.96403 13.7631
            CHANNELS 6 Xposition Yposition Zposition Zrotation Xrotation Yrotation
            End Site
            {
              OFFSET 0 0 3.67017
            }
          }
        }
      }
    }
  }
}
MOTION
Frames:	4
Frame Time:	0.004
0 0 0 0 0 -0 -15.477 77.176 -117.465 2.73408 -2.36028 5.02355 0 7.52385 0 -0.243063 -0.815122 -4.46044 -1.77636e-015 21.7843 -1.42109e-014 1.1213 14.9116 -4.60543 0 21.6948 1.97225 -0.601971 11.8212 -1.95823 0 12.8456 -1.83509 -0.083674 17.5518 -2.01395 3.65748 19.7052 -0.211895 -5.08543 18.542 -9.94449 11.1953 -7.10543e-015 0 -38.0448 41.2897 -25.0527 29.6607 0 -1.42109e-014 15.0166 -17.4166 -31.67 23.3476 -7.10543e-015 0 4.76412 -13.2275 1.38144 -3.68053 19.7052 -0.211895 4.9506 20.6089 0.078172 -11.1953 0 0 35.3574 47.9823 37.2774 -29.6607 -1.42109e-014 0 -11.363 -13.0436 21.9346 -23.3476 0 0 2.26916 -10.88 0.076236 9.17543 0 0 -3.86161 2.33598 -1.16247 -8.88178e-016 -39.1216 0 -1.76133 20.7461 -1.88269 0 -35.3569 0 -1.27604 -16.68 6.26962 3.55271e-015 -5.96403 13.7631 -7.95139e-016 7.95139e-016 -1.59028e-015 -9.17543 0 0 -1.97903 -19.1541 1.24875 -3.55271e-015 -39.1216 -1.42109e-014 3.64727 21.2577 -0.674319 -1.77636e-015 -35.3569 0 -1.38265 -2.24233 -16.4106 0 -5.96403 13.7631 -1.04362e-015 3.97569e-016 -0 
0 0 0 0 0 -0 -15.5339 77.1883 -117.251 2.73995 -2.35748 5.12532 -1.77636e-015 7.52385 1.42109e-014 -0.159698 -0.782961 -4.41178 0 21.7843 0 1.16156 15.0221 -4.56386 0 21.6948 1.97225 -0.367043 11.8416 -1.9967 3.55271e-015 12.8456 -1.83509 -0.402267 17.4058 -2.0606 3.65748 19.7052 -0.211895 -5.08214 18.5816 -9.95385 11.1953 -7.10543e-015 0 -38.2559 41.3314 -24.895 29.6607 0 0 14.9729 -17.3905 -31.6591 23.3476 -7.10543e-015 0 4.59122 -13.2207 1.27878 -3.68053 19.7052 -0.211895 5.01719 20.5912 0.10345 -11.1953 -7.10543e-015 0 35.2018 47.9026 37.3611 -29.6607 0 0 -11.4993 -13.0342 21.7365 -23.3476 0 1.42109e-014 3.0989 -10.8521 0.526164 9.17543 -1.42109e-014 0 -3.79367 2.00069 -1.22291 0 -39.1216 0 -1.84009 21.6506 -1.62867 0 -35.3569 0 -1.54001 -16.6367 6.06066 0 -5.96403 13.7631 3.97569e-016 -7.95139e-016 -1.59028e-015 -9.17543 0 1.42109e-014 -1.9537 -19.067 1.26406 -1.77636e-015 -39.1216 0 3.68451 21.4324 -0.364639 3.55271e-015 -35.3569 0 -1.60345 -2.44701 -16.85 -7.10543e-015 -5.96403 13.7631 3.47873e-016 -3.97569e-016 -0 
0 0 0 0 0 -0 -15.5816 77.1941 -117.082 2.77692 -2.2628 5.15264 -1.77636e-015 7.52385 0 -0.088668 -0.755957 -4.31032 0 21.7843 0 1.14389 15.0793 -4.46115 0 21.6948 1.97225 -0.441044 11.7366 -2.11279 0 12.8456 -1.83509 -0.155904 17.4615 -2.18056 3.65748 19.7052 -0.211895 -5.0346 18.6296 -9.9666 11.1953 -1.42109e-014 0 -38.4308 41.3716 -24.7978 29.6607 0 0 14.8819 -17.3575 -31.659 23.3476 1.42109e-014 0 4.65333 -13.2094 1.34415 -3.68053 19.7052 -0.211895 5.06499 20.5079 0.186327 -11.1953 1.42109e-014 0 35.3011 47.6682 37.1753 -29.6607 0 -1.42109e-014 -11.3776 -13.0692 21.8275 -23.3476 0 0 3.12351 -10.8996 0.592286 9.17543 -1.42109e-014 0 -3.77728 1.47192 -1.23715 -1.77636e-015 -39.1216 0 -1.94012 22.6759 -1.12592 -8.88178e-016 -35.3569 0 -1.86132 -16.5482 5.63427 0 -5.96403 13.7631 7.95139e-016 0 -3.18055e-015 -9.17543 0 1.42109e-014 -1.95891 -19.1495 1.36894 1.77636e-015 -39.1216 -1.42109e-014 3.73857 21.6424 -0.25748 1.77636e-015 -35.3569 0 -1.67791 -2.6547 -17.1982 0 -5.96403 13.7631 -3.97569e-016 3.97569e-016 1.59028e-015 
0 0 0 0 0 -0 -15.6452 77.2151 -116.888 2.78469 -2.23278 5.24456 0 7.52385 0 -0.046735 -0.635783 -4.23344 0 21.7843 0 1.27692 15.0558 -4.40195 -3.55271e-015 21.6948 1.97225 -0.376626 11.6797 -2.19957 0 12.8456 -1.83509 -0.25786 17.4498 -2.27236 3.65748 19.7052 -0.211895 -5.055 18.7132 -10.0002 11.1953 -1.42109e-014 0 -38.6704 41.3736 -24.6425 29.6607 0 0 14.7962 -17.3018 -31.6374 23.3476 7.10543e-015 0 4.75526 -13.175 1.43035 -3.68053 19.7052 -0.211895 5.05836 20.5453 0.13721 -11.1953 1.42109e-014 -2.84217e-014 35.1764 47.5096 37.2795 -29.6607 1.42109e-014 0 -11.2718 -13.0285 21.8375 -23.3476 0 1.42109e-014 2.90515 -10.8825 0.442484 9.17543 0 1.42109e-014 -3.68339 1.002 -1.30902 -8.88178e-016 -39.1216 -1.42109e-014 -2.24514 23.8524 -0.284788 0 -35.3569 0 -2.07864 -16.4998 5.30627 1.77636e-015 -5.96403 13.7631 -1.59028e-015 7.95139e-016 -0 -9.17543 1.42109e-014 0 -1.92403 -19.1113 1.34881 -3.55271e-015 -39.1216 2.84217e-014 3.73685 21.8075 -0.149193 1.77636e-015 -35.3569 -1.42109e-014 -1.87366 -2.75605 -17.011 0 -5.96403 13.7631 5.46658e-016 3.97569e-016 1.59028e-015 
